<?xml version="1.0" encoding="utf-8"?>
<!-- Generator: Adobe Illustrator 28.0.0, SVG Export Plug-In . SVG Version: 6.00 Build 0)  -->
<svg version="1.0" xmlns="http://www.w3.org/2000/svg" stroke="none" fill="currentColor" xmlns:xlink="http://www.w3.org/1999/xlink" x="0px" y="0px"
	 viewBox="0 0 123.5 123.5" xml:space="preserve">
	<path d="M24.7,5C13.3,5,4,14.3,4,25.7V120h94.3c11.4,0,20.7-9.3,20.7-20.7V5H24.7z M59.5,81l-14.6,0.7l-0.4-6
		c-3.1,4-7,6.3-11.6,6.3c-6.1,0-10.2-3.4-10.1-12.9l0.2-17.4L19,50.9v-3l14.6-2.1l1.1,0.8l-0.4,10.1v12.6c0,4.4,1.4,5.9,3.9,5.9
		c2,0,4.2-1.4,6.2-3.3l0.2-20.1l-3.9-0.9v-2.8l14.2-2.3l1.1,0.8l-0.2,10.1v20.3l3.7,0.8V81z M105.9,81h-3.5H90.7h-3.6v-3.3l3.7-0.8
		c0.1-3.5,0.1-7.8,0.1-10.9v-7.5c0-4.6-1.1-6.2-4-6.2c-1.8,0-4,0.9-6.1,2.6V66c0,3,0,7.4,0.1,11l3.4,0.7V81H81H69.2h-3.7v-3.3
		l3.9-0.8c0.1-3.5,0.1-7.8,0.1-10.8v-4.1c0-3.9-0.1-5.4-0.2-8.3L64.8,53v-2.8l14.1-4.7l1.2,0.8l0.4,5.2c3.8-4.4,7.3-5.9,11.4-5.9
		c6.2,0,10.3,4,10.3,12.3V66c0,3.1,0,7.5,0.1,10.9l3.6,0.7V81z"/>
</svg>
